<?xml version="1.0" encoding="UTF-8"?>
<svg version="1.1" viewBox="0 0 800 800" width="1280" height="1280" xmlns="http://www.w3.org/2000/svg">
<path transform="translate(106,168)" d="m0 0h292l147 1 78 1 45 1 20 3 14 7 11 9 8 11 6 12 3 20 1 45v33h11l5 2v171l-13 4h-3v29l-1 45-3 20-7 14-9 11-9 7-16 8-14 2-9 4-17 2-46 1h-234l-220-1-47-1-21-2-3-2-1-3v-132l-7-1-3-3v-14l2-2 8-1v-8h-6l-4-4v-13l1-2 9-2v-11l-7-1-3-3v-14l2-2 8-1-1-6-7-2-2-2v-14l5-3 4-1 1-11h-7l-3-3v-14l5-3 5-1v-171l2-5 6-2z" fill="#303158"/>
<path transform="translate(583,352)" d="m0 0h1v96l2 12 6 10 10 10 11 5 11 3 63 1h37l1 1-1 35-1 17-4 7-3 10-9 20h-1v-8l-3 1-1-5v-9l-1-5-1 20-2 14-4 10h-2l-2 6-2 4 7-9 1-4 5-4 2-2-1 6-3 7v8l3-2 6-2 6-6 2-5 5-3-1 5-9 11-9 7-16 8-14 2-9 4-17 2-46 1h-234l-220-1-47-1-21-2-3-2-1-3v-85h1l2 24 2 16 3-41 2-46 73 2 1 2 1 46 5 10 8 5 3 1 63 1 7 8 7 3h9l10-5 4-6 1-3v-12l-4-7-6-5-6-2h-8l-8 4-6 7h-30l-30-1-1-1-1-47-4-8-7-6-8-2-50-1-23-1v-10l109 1h18l19 1 5 5 13 19 11 15 12 17 7 9 8 5 3 1 43 1 4 6 10 5h8l8-3 6-7 2-5v-9l-3-7-4-5-9-4h-7l-8 3-7 7h-3l-4-15-2-20 1-19 2-14 9-30 4-8h1v13l3 25 7 21 11 20 11 13 4 5 14 11 8 5 15 8 21 7 20 2 20-1 12-2 21-7 19-10 13-11 7-6 8-10 6-9 9-17 6-20 2-15v-20l-2-16-2-9 4-18 4-8z" fill="#303158"/>
<path transform="translate(459,303)" d="m0 0 22 2 21 6 16 8 10 6 14 12 5 5 11 13 12 22 6 20 2 16v20l-2 15-6 20-12 22-14 17-14 12-10 6-15 8-23 7-20 2-18-1-13-2-20-7-19-10-14-12-6-5-11-14-5-8-8-15-6-19-3-25 2-22 6-21 8-17 7-11 11-13 5-5 13-11 23-12 19-6 15-2z" fill="#9162F3"/>
<path transform="translate(212,252)" d="m0 0h18l1 1v35l-4 11-13 19-13 18-12 17-9 12-8 5-9 2-69-1-13-1v13l37 1h66l6-7 14-20 13-18 12-17 7-6 8-3h88v14l1 6h-87l-10 13-13 19-12 16-10 14-6 5-7 3-5 1h-35l-55-1-10-1 1 8 22 1 140 1 44 1v19l-168-1-38-1v13l149 2 10 5 9 10 13 19 13 18 12 17 2 2 40 2v18h-43l-10-5-7-8-24-34-13-18-3-5-2-1-19-1h-25l-84-1-18-1v10h23l50 1 8 2 8 7 4 8 1 47 30 1h30l7-8 7-3h8l9 4 7 8 1 3v12l-4 8-5 4-7 3h-9l-8-4-6-7-63-1-10-5-4-5-3-7-1-48h-35l-37-1-3 60-2 26-2 4-3-29-1-15v-47l-7-1-3-3v-14l2-2 8-1v-8h-6l-4-4v-13l1-2 9-2v-11l-7-1-3-3v-14l2-2 8-1-1-6-7-2-2-2v-14l5-3 4-1 1-11h-7l-3-3v-14l5-3 5-1 1 2 15 1 37 1h37l5-5 12-17 13-18 12-17 4-6 1-3z" fill="#6885F1"/>
<path transform="translate(339,411)" d="m0 0h1v13l3 25 7 21 11 20 11 13 4 5 14 11 8 5 15 8 21 7 20 2 20-1 12-2 21-7 19-10 13-11 7-6 8-10 6-9 5-9 1 4-8 21-7 16-12 23-10 13-6 8-6 5h-2v2l-6 4-11 8-15 8-23 7-14 1-6 1h-8l-3-1h-6l-6-1-12-3-8-3-6-2v-2l-6-1v-2l-5-1-8-5v-2l-4-1v-2l-4-2v-2h-3l-1-2-3-1-2-4-7 2-4 2-10-1-2-1v-3h-2l-3-7-1-3-2-1-23-1-8 1-12-2-4-2-4-8-7-6-6-2h-8l-8 4-6 7h-30l-30-1-1-1-1-47-4-8-7-6-8-2-50-1-23-1v-10l109 1h18l19 1 5 5 13 19 11 15 12 17 7 9 8 5 3 1 43 1 4 6 10 5h8l8-3 6-7 2-5v-9l-3-7-4-5-9-4h-7l-8 3-7 7h-3l-4-15-2-20 1-19 2-14 9-30z" fill="#282949"/>
<path transform="translate(84,490)" d="m0 0 73 2 1 2 1 46 5 10 8 5 3 1 63 1 7 8 7 3h9l9-3-2 6-2 3h-2v2h-2l-1 4-6 4-10 2-5-1-3-3v-3h-2l-1-4v-4l-3-1v-2l-20 2h-44l-2-1v-2l-5-1-3-4-3-11-1-43-1-1h-11v1l-15 1-4 4 2 6v7l4 19-3 9-1 10v6l-4 12-2 8 3 1 4 13v3l5 11 4 2 38 2h48l19 1h115v1l-11 1 224-1 71-1 24-2 8-1 9-7h3l5-4 8-11 1-4 5-4 2-2-1 6-3 7v8l3-2 6-2 6-6 2-5 5-3-1 5-9 11-9 7-16 8-14 2-9 4-17 2-46 1h-234l-220-1-47-1-21-2-3-2-1-3v-85h1l2 24 2 16 3-41z" fill="#292B4D"/>
<path transform="translate(212,252)" d="m0 0h18l1 1v35l-4 11-13 19-13 18-12 17-9 12-8 5-9 2-69-1-13-1v13l37 1h66l6-7 14-20 13-18 12-17 7-6 8-3h88v14l1 6h-87l-10 13-13 19-12 16-10 14-6 5-7 3-5 1h-35l-55-1-10-1 1 9-3-1v-8l-3 1-1 7h-3l-1-8-7-2-2-2v-14l5-3 4-1 1-11h-7l-3-3v-14l5-3 5-1 1 2 15 1 37 1h37l5-5 12-17 13-18 12-17 4-6 1-3z" fill="#6784F0"/>
<path transform="translate(85,176)" d="m0 0h12l15 1 12 6 3 6 3 11v44l-1 27-2 19-3 29-1 27-1 6h-32l-8-1-2-55v-107l2-9z" fill="#282949"/>
<path transform="translate(74,461)" d="m0 0h9l1 1v10h23l50 1 8 2 8 7 4 8 1 47 30 1h30l7-8 7-3h8l9 4 7 8 1 3v12l-4 8-5 4-7 3h-9l-8-4-6-7-63-1-10-5-4-5-3-7-1-48h-35l-37-1-3 60-2 26-2 4-3-29-1-15v-47l-7-1-3-3v-14l2-2 8-1z" fill="#6985F1"/>
<path transform="translate(451,357)" d="m0 0h11l5 5 1 3v13l9 2 8 5 5 6 2 5v9l-5 5-3 1h-14l-5-4v-8h-2l-2-3h-10l-1 9 7 6 22 9 9 6 4 5 2 5v16l-5 10-9 6-12 4v9l-3 5-7 2-8-1-4-3v-13l-10-3-6-4-4-4v-3h-2v-16l4-4 3-1h12l6 4 3 10 3 2h8l2-1v-8l-4-3v-2l-6-1-19-9-5-4-5-5-4-10v-13l3-9 8-6 12-4 1-16z" fill="#ADACDE"/>
<path transform="translate(583,352)" d="m0 0h1v96l2 12 6 10 10 10 11 5 11 3 63 1h37l1 1-1 35-1 17-4 7-3 10-9 20h-1v-7l1-4h-2v-6l1-1v-28l1-4h-1v-6l1-1 1-31h-6v7l-2 4-9 7-5 1-6 3-9 2-23 1h-33l-13-3-6-3-5-3-9-9-7-14-3-22 1-7 3-12 1-10v-20l-2-16-2-9 4-18 4-8z" fill="#282949"/>
<path transform="translate(202,475)" d="m0 0h24l6 6v3h2l3 4v3l3 1v3h2l3 5v2h2l3 4v3h2l3 4v3h2l3 4v3h2v3h2l-1 3-3-1h-8l-8 4-6 7h-30l-30-1-1-1-1-47-4-8-4-5 6-1z" fill="#303158"/>
<path transform="translate(76,445)" d="m0 0h26l24 2 25 1 80 1 8 4 5 5 12 16 11 16 13 18 8 11 5 2 38 1 1 14h-43l-10-5-7-8-24-34-13-18-3-5-2-1-19-1h-25l-84-1-31-2 4-2-1-13z" fill="#6885F2"/>
<path transform="translate(212,252)" d="m0 0h18l1 1v35l-4 11-13 19-13 18-12 17-7 10-7 3-8 3h-21l-32-1-2-1v-3h-2l-5-6-3-1-30-2-8-2 2-3 8-2 1 2 15 1 37 1h37l5-5 12-17 13-18 12-17 4-6 1-3z" fill="#6784F0"/>
<path transform="translate(646,372)" d="m0 0h9l10 3 8 6 6 7 4 9v16l-6 12-7 7-11 5-5 1-13-1-10-5-5-4v-2h-2l-6-12-1-11 3-12 6-9 8-6 7-3z" fill="#6784F1"/>
<path transform="translate(84,430)" d="m0 0h38l167 1 6 7 8 4h9l9-3-1 5-9 10-8 5-7 1-6-3-5-8-2-5-6-1h-45v1h-9v-2l-21 2-17 1h-28l-63-1-10-1z" fill="#282949"/>
<path transform="translate(450,336)" d="m0 0h14l13 2 15 5 15 9 13 12 10 13 7 14 4 14 1 7v20l-2 12-6 16-6 10-1-2 6-12 3-14-1-17-5-17-7-14-12-15-11-9-12-7-13-5-14-3h-18l-14 2-16 6-11 6-4 3h-2l2-5 6-6v-6l6-5 12-7 15-5z" fill="#7852CB"/>
<path transform="translate(75,475)" d="m0 0h11l17 2 3 3 3 5v2l47 2 3 2 1 4v33l1 12 3 6 7 6 3 1 18 1 46 1v-12l1-7 8-7 5-2h8l9 4 7 8 1 3v12l-4 8-5 4-7 3h-9l-8-4-6-7-63-1-10-5-4-5-3-7-1-48h-35l-37-1-3 60-2 26-2 4-3-29-1-15v-47l-7-1-2-3 10 2z" fill="#546BBE"/>
<path transform="translate(459,303)" d="m0 0 22 2 21 6 16 8 10 6 14 12 5 5 11 13 12 22 6 20v28l-2 1v-2h-2l-4-21-8-22-12-20-13-16-9-8-13-9-15-8-22-7-11-3-7-3h-15l1-2z" fill="#AB75FA"/>
<path transform="translate(246,332)" d="m0 0h86l3 4v2l4 2 9 3 9-1 7-3-2 6-7 9-8 5-3 1h-7l-5-3-4-6-2-7h-84l-4 1-2 4-10 15h-2v2l-2-1 13-19 10-13z" fill="#282949"/>
<path transform="translate(74,428)" d="m0 0 9 1 1 14 149 2 10 5 9 10 13 19 13 18 12 17 2 2 40 2v6l-1-2h-38l-6-3-9-12-36-51-8-5-3-1-80-1-25-1-24-2h-26l-1 1 1 13-8 1-4-4v-13l1-2 9-2z" fill="#7291F7"/>
<path transform="translate(354,366)" d="m0 0 1 4-4 8-5 19-2 20v9l3 22 7 20 11 19 13 15 15 13 20 11 20 6 21 3 23-1 24-6 21-10 5-3-1 4 2 1-8 5-15 8-23 7-20 2-18-1-13-2-20-7-19-10-14-12-6-5-11-14-5-8-8-15-6-19-3-25 2-22 6-21z" fill="#7852CB"/>
<path transform="translate(216,314)" d="m0 0 1 3-10 13-9 14-8 11-10 15-7 9-9 6h-46l-30-1-7-1v-13l82 1 9-2 9-6 12-17 13-18z" fill="#292A4A"/>
<path transform="translate(347,506)" d="m0 0h7l10 5 6 8 1 4v9l-4 8-7 6-6 2h-8l-10-5-4-5-1-6 1-16 4-5 7-4z" fill="#5FC047"/>
<path transform="translate(345,302)" d="m0 0h10l8 4 6 7 2 5v9l-3 8-7 6-8 3-9-1-6-3-5-5-1-5-1-3v-8l2-9 7-6z" fill="#6FEA4A"/>
<path transform="translate(252,527)" d="m0 0h8l9 4 7 8 1 3v12l-4 8-5 4-7 3h-9l-8-4-6-7v-15l1-7 8-7z" fill="#6FEA49"/>
<path transform="translate(304,401)" d="m0 0 11 1 8 5 5 8 1 10-4 10-7 6-6 2h-9l-8-4-5-6-1-16 2-8 6-5z" fill="#6FEA49"/>
<path transform="translate(219,213)" d="m0 0 10 1 8 6 4 5 2 10-2 8-4 6-5 4h-16l-7-2-5-5-3-8v-7l4-10 6-5z" fill="#6FEA49"/>
<path transform="translate(74,446)" d="m0 0 20 1 9 1 5 5 1 5 7 1 40 1 74 1 5 4 13 19 11 15 14 20 6 8 10 5 42 2 1-2v4h-43l-10-5-7-8-24-34-13-18-3-5-2-1-19-1h-25l-84-1-31-2 4-2z" fill="#536ABE"/>
<path transform="translate(616,406)" d="m0 0 2 1 2 10 4 7v2h2l5 5 10 5 13 1 10-3 8-5 3-1-1 5-4 8-6 7-12 8h-2l-2 1v-2l-9 1-13-5-5-4-6-10-2-5v-19z" fill="#282949"/>
<path transform="translate(220,367)" d="m0 0 3 1h-2v3h-2l-2 4-1 3h-2l-2 5-7 10-8 12-6 7h-85l-22-1-1-1v-8l65 1h35l10-3 6-4 8-10z" fill="#28294A"/>
<path transform="translate(74,414)" d="m0 0h12l18 2 5 5 2 5 17 1 104 1 57 1v3l-167-1-38-1v10h-1v-11h-7l-2-4z" fill="#546BBF"/>
<path transform="translate(64,353)" d="m0 0 12 1 26 2 5 3 3 3v2h2v3l34 1h21l10-4 4-1-5 5-7 3-11 1-64-1-13-1v13h-7v-14h-7l-3-3z" fill="#546BBF"/>
<path transform="translate(75,462)" d="m0 0h9v10h23l50 1 8 2 8 7 4 8 1 47 30 1h31l-1 10h-1v-5h-55l-7-1-3-5-1-46-3-6-6-5-6-2-23-1-18-2-38-2-2-2z" fill="#7391F7"/>
<path transform="translate(79,176)" d="m0 0 2 2 4-2-3 6-1 10v105l1 30v24h-7v-37l1-41 1-80 1-16z" fill="#303158"/>
<path transform="translate(73,386)" d="m0 0 28 2 5 2 5 6v3l31 1h45l9-4 4-1-5 5-7 3-5 1h-35l-55-1-10-1 1 9-3-1v-8l-3 1-1 7h-3v-9l3-1-4-3z" fill="#546BBE"/>
<path transform="translate(78,402)" d="m0 0h3l1 8 24 1 140 1 44 1v4h-74l-83-1-19-2-28-1-10-1 1-9z" fill="#718FF4"/>
<path transform="translate(373,439)" d="m0 0 5 1 7 18 8 14 11 12 11 8 14 7 12 4 8 2 4 3-6 1h-9l-16-5-15-8-14-12-10-13-8-16-3-10v-5z" fill="#AF77FD"/>
<path transform="translate(574,177)" d="m0 0 15 1h49l10 1 3 1h4v2l7 1 11 6 10 9 6 8 1 4-3-1v-2l-3-1v-2h-2v-2h-2v-2l-4-2-11-7-7-3-19-3-73-3-16-1-5-1v-1l7-1z" fill="#454567"/>
<path transform="translate(245,530)" d="m0 0 2 1-2 2 2 10 1 3 5 2 8 6 6 3 9-1-4 7-8 5-3 1h-9l-8-4-6-7v-15l1-7z" fill="#5FC147"/>
<path transform="translate(295,405)" d="m0 0 2 1-2 3 5 10 11 8 8 5 8-2-3 6-6 5-6 2h-9l-8-4-5-6-1-16 2-8z" fill="#5FC147"/>
<path transform="translate(339,305)" d="m0 0m-2 1 2 1-3 3 3 2 3 8 11 8 8 5 5-1 4-3-2 6-7 6-8 3-9-1-6-3-5-5-1-5-1-3v-8l2-9z" fill="#5FC147"/>
<path transform="translate(204,223)" d="m0 0 6 1 5 8 11 8 7 4 2 1 4-3 2 1-4 6-5 4h-16l-7-2-5-5-3-8v-7z" fill="#5FC147"/>
<path transform="translate(648,171)" d="m0 0h20l8 1v3l10 3 12 7 9 9 3 4v2l-4-2-9-8-11-6-8-3-28-3-53-2-3-2 11-1 34-1z" fill="#434468"/>
<path transform="translate(646,372)" d="m0 0h9l10 3 8 6 6 7 4 9v12l-7 14-4 2 3-7 1-6v-8l-3-10-5-7-9-6-8-2h-7l-11 2v-3l3-3z" fill="#7291F8"/>
<path transform="translate(83,513)" d="m0 0h1v32l-2 71-1 6-3-3-3-23-1-20v-39h1l2 24 2 16 3-41z" fill="#454567"/>
<path transform="translate(76,174)" d="m0 0h3l-1 29-1 70-2 77h-1v-173z" fill="#28294A"/>
<path transform="translate(422,412)" d="m0 0 3 3 1 3 5 4 5 5 21 10 4 1v2l4 2 1 1v8l-3 2h-8l-5-5-2-8-18-9-6-7-3-6v-5z" fill="#705ACB"/>
<path transform="translate(202,461)" d="m0 0h28l5 4 13 19 11 15 14 20 6 8 10 5 42 2 1-2v4h-43l-10-5-7-8-24-34-13-18-3-5-2-1-19-1v-2h-9z" fill="#556DC1"/>
<path transform="translate(244,313)" d="m0 0h88v5h-94v-3z" fill="#6F8EF5"/>
<path transform="translate(78,240)" d="m0 0h1l2 57 1 30v24h-7l1-30z" fill="#454567"/>
<path transform="translate(340,513)" d="m0 0 7 1 9 7 3 6v2l3-1 2-13 4 1 3 7v9l-5 3-4 1-8-3-12-8-3-5v-6z" fill="#6EEA49"/>
<path transform="translate(74,428)" d="m0 0 9 1 1 14h10l8 1v1l-26 1-1 1 1 13-8 1-4-4v-13l1-2 9-2z" fill="#6C86E7"/>
<path transform="translate(200,239)" d="m0 0h2l4 8 1 3 5 2v34l-3 2-1-4v-10l-5-5-4-6-2-7v-10z" fill="#282949"/>
<path transform="translate(106,168)" d="m0 0h15l15 1v1l-15 1-6 2 81 1v1l-96 1-17 1-3 3-1-6-4 1 1-3 6-2z" fill="#404676"/>
<path transform="translate(451,395)" d="m0 0h10l2 4h2l1 8 4 3 3 1h15l-2 4-5 2h-11l-15-6-6-6 1-9z" fill="#7256CA"/>
<path transform="translate(74,490)" d="m0 0h9v20l-3 28-2 4-3-22z" fill="#A0A7E5"/>
<path transform="translate(74,498)" d="m0 0h1l1 22 2 15 1 3 3-27 2-1-2 41-2 26-2 4-3-29-1-15z" fill="#536ABD"/>
<path transform="translate(354,366)" d="m0 0 1 4-4 8-5 19-2 20v9l3 24-1 4 2 7-1 4-6-21-2-22 3-25 7-21z" fill="#6E5ACA"/>
<path transform="translate(422,454)" d="m0 0h2v3h2l3 5 5 4 12 5 1 13 7 3v2l9-1-2 4-9 2-6-2-2-5-1-10-12-5-5-5-4-7z" fill="#6D61CE"/>
<path transform="translate(247,329)" d="m0 0h84l2 1-1 3h-86l-3 2 1-4z" fill="#576FC3"/>
<path transform="translate(158,496)" d="m0 0h1l1 32 1 12 3 6 7 6 3 1 18 1 46 1v2h-63l-10-5-4-5-3-7z" fill="#556CC0"/>
<path transform="translate(116,385)" d="m0 0h68l-1 4h-43l-18-1-6-1z" fill="#7494FC"/>
<path transform="translate(331,319)" d="m0 0h2l3 6 1 3 14 7 1 1 1 8-9-1-6-3-5-5-1-5-1-3z" fill="#519C4D"/>
<path transform="translate(202,227)" d="m0 0 2 3 3 6 7 6 9 5 2 6h-9l-7-2-5-5-3-8v-7z" fill="#569D55"/>
<path transform="translate(332,523)" d="m0 0 6 9 14 8-1 7 3 1h-8l-10-5-4-5-1-6v-8z" fill="#519B4D"/>
<path transform="translate(82,447)" d="m0 0h12l9 1 5 5 1 5 7 1v1h-12l-12-1-7-10z" fill="#5D77CE"/>
<path transform="translate(75,414)" d="m0 0h11l18 2 5 5 2 6h-16l-4-2-6-9-10-1z" fill="#5D77CE"/>
<path transform="translate(80,355)" d="m0 0h10l12 1 5 3 3 3v2h2v3l2 1h-13l-9-1-4-8-1-3h-7z" fill="#5D77CE"/>
<path transform="translate(79,387)" d="m0 0h11l15 2 6 7v3l2 1h-13l-8-1-5-9v-2h-8z" fill="#5D77CE"/>
<path transform="translate(76,475)" d="m0 0h10l17 2 3 3 3 5v2l2 1h-17l-4-2-5-8-1-1-8-1z" fill="#5D77CE"/>
<path transform="translate(238,546)" d="m0 0h2l4 7 14 8-1 7 4 1h-9l-8-4-6-7z" fill="#519B4E"/>
<path transform="translate(290,419)" d="m0 0 3 4 3 5 13 6 1 6-1 2 3 1h-9l-8-4-5-6z" fill="#519B4D"/>
<path transform="translate(621,389)" d="m0 0 1 3-2 6v11l4 11 6 7 12 6 8 1 12-2 7-3 3 1-8 5-10 3-13-1-10-5-5-4v-2h-2l-6-12-1-11 3-12z" fill="#556CC0"/>
<path transform="translate(227,253)" d="m0 0h4v35l-5 10h-1l1-43z" fill="#7291FA"/>
<path transform="translate(73,380)" d="m0 0 3 6h-3l1 11 4 4-5 1-7-2-2-2v-14l5-3z" fill="#748EF3"/>
<path transform="translate(716,318)" d="m0 0 4 1v19l-2 14h-2l-3-22v-11z" fill="#454567"/>
<path transform="translate(202,461)" d="m0 0h28l5 4 13 19 9 12v2l-4-2-13-18-8-12-2-1-19-1v-2h-9z" fill="#566EC3"/>
<path transform="translate(75,429)" d="m0 0h8l1 14h10l8 1v1h-27z" fill="#8096EC"/>
<path transform="translate(117,353)" d="m0 0h48l-2 4h-21l-18-1-7-1z" fill="#7595FD"/>
<path transform="translate(701,541)" d="m0 0h1l1 26-1 11-2 11h-2l-2 9-7 9h-3l6-10h2l3-10 2-14z" fill="#454567"/>
<path transform="translate(449,399)" d="m0 0 7 1 5 2 3 5v7l-9-3-6-6z" fill="#9262F4"/>
<path transform="translate(422,454)" d="m0 0h2v3h2l3 5 4 5 11 5v5l-12-4-5-5-4-5z" fill="#7455CA"/>
<path transform="translate(340,417)" d="m0 0h1l1 8 2 1 3 24-1 4 2 7-1 4-6-21-2-22z" fill="#796DD3"/>
<path transform="translate(705,481)" d="m0 0 6 2 6 5 4 2h-27l4-1 2-5z" fill="#46476D"/>
<path transform="translate(449,441)" d="m0 0 7 2 6 3 3 3v3l-2 1h-8l-5-5z" fill="#9264F4"/>
<path transform="translate(119,612)" d="m0 0h2l5 8v4l-3 1h-8l-2-2 1-6z" fill="#303158"/>
<path transform="translate(212,252)" d="m0 0 13 1-3 3-7 2-1 26-2 5-1-3z" fill="#5C76CD"/>
<path transform="translate(72,348)" d="m0 0h2l1 2 15 1-3 1v2l3 1h-20l-6-2 2-3z" fill="#6885ED"/>
<path transform="translate(78,402)" d="m0 0h3l1 8 24 1 8 1v1h-28l-10-1 1-9z" fill="#7B94F1"/>
<path transform="translate(451,395)" d="m0 0h10l2 4h2v8h-2l-3-5-10-1v-5z" fill="#7160D2"/>
<path transform="translate(76,490)" d="m0 0 6 1-1 15-2 8h-1l-2-16z" fill="#fff"/>
<path transform="translate(68,414)" d="m0 0 4 1 2 12-9-1-1-2z" fill="#BFBEE4"/>
<path transform="translate(66,474)" d="m0 0 7 1v11h-5l-2-2-1-9z" fill="#fff"/>
<path transform="translate(69,446)" d="m0 0 4 1 1 11-3 1-5-2v-7l1-3z" fill="#fff"/>
<path transform="translate(75,462)" d="m0 0h8v9h-8z" fill="#fff"/>
<path transform="translate(65,446)" d="m0 0 4 1h-2v10l5 1 1-1v-10h2l1 13-8 1-4-4z" fill="#939EE5"/>
<path transform="translate(342,438)" d="m0 0 4 5 1 7-1 4 2 7-1 4-6-21z" fill="#6466CA"/>
<path transform="translate(699,577)" d="m0 0h1v8l-4 13-7 9h-3l6-10h2l3-10z" fill="#4C5894"/>
<path transform="translate(78,429)" d="m0 0 3 1 1 3v10l-5-1v-11z" fill="#fff"/>
<path transform="translate(354,366)" d="m0 0 1 4-4 8-4 15-3 1 2-10 5-12z" fill="#7454CA"/>
<path transform="translate(74,576)" d="m0 0h1l1 20 2 18v5l-2-2v-10h-2z" fill="#2D2E54"/>
<path transform="translate(723,553)" d="m0 0h1v20l-1 9h-2l-3 9-2 1 3-9 1-2 2-14z" fill="#495185"/>
<path transform="translate(482,468)" d="m0 0 2 1-6 5-10 3v-4l12-4z" fill="#7852CB"/>
<path transform="translate(69,361)" d="m0 0h2l1 6 5 1v1h-10l-3-3 1-2h3z" fill="#9FABEC"/>
<path transform="translate(212,252)" d="m0 0 4 1-2 4-1 30-2 2z" fill="#536ABE"/>
<path transform="translate(719,587)" d="m0 0h4l-1 5-4 2-5 5-3 2 2-5 1-2h2v-2l3-3z" fill="#3B3D64"/>
<path transform="translate(236,345)" d="m0 0h2l-2 4-10 15h-2v2l-2-1 13-19z" fill="#292A4C"/>
<path transform="translate(540,421)" d="m0 0h1v20l-2 6h-2l1-8z" fill="#5F62C1"/>
<path transform="translate(669,429)" d="m0 0 3 1-8 5-6 1-8-1v-1l12-2z" fill="#5B74CA"/>
<path transform="translate(621,389)" d="m0 0 1 3-2 6v11l1 6-3-1-1-11 3-12z" fill="#566EC3"/>
<path transform="translate(72,348)" d="m0 0h2l1 2 5 1-1 2h-9l-4-2 3-2z" fill="#8199F4"/>
<path transform="translate(65,383)" d="m0 0 5 1-1 3h-2l-2 9h-1v-12z" fill="#556CC0"/>
<path transform="translate(74,370)" d="m0 0h3v11l-3 1z" fill="#454567"/>
<path transform="translate(80,173)" d="m0 0h5v2h15v1l-17 1-3 3z" fill="#454567"/>
<path transform="translate(147,180)" d="m0 0 16 4v1l-15-1z" fill="#282949"/>
<path transform="translate(75,429)" d="m0 0h3v14l-3-1z" fill="#AEADDE"/>
<path transform="translate(73,419)" d="m0 0h1l2 7v3l-9-1-1-2h7z" fill="#8096F0"/>
<path transform="translate(70,395)" d="m0 0 5 3v2h-6l-2-1v-2z" fill="#C2C9F2"/>
</svg>
